HIERARCHY
ROOT SpineBase
{
  OFFSET 0.000000 0.000000 0.000000
  CHANNELS 6 Xposition Yposition Zposition Zrotation Xrotation Yrotation
  JOINT SpineMid
  {
    OFFSET 0.000000 30.046198 0.000000
    CHANNELS 3 Zrotation Xrotation Yrotation
    JOINT SpineShoulder
    {
      OFFSET 0.017086 22.535462 -0.793434
      CHANNELS 3 Zrotation Xrotation Yrotation
      JOINT Neck
      {
        OFFSET 0.025162 7.525880 -0.579944
        CHANNELS 3 Zrotation Xrotation Yrotation
        JOINT Head
        {
          OFFSET -1.390606 11.218438 3.414990
          CHANNELS 3 Zrotation Xrotation Yrotation
          End Site
          {
            OFFSET 0 0 0
          }
        }
      }
      JOINT ShoulderLeft
      {
        OFFSET -13.658393 -6.715858 -3.397325
        CHANNELS 3 Zrotation Xrotation Yrotation
        JOINT ElbowLeft
        {
          OFFSET -4.508782 -26.355697 8.010732
          CHANNELS 3 Zrotation Xrotation Yrotation
          JOINT WristLeft
          {
            OFFSET 26.460023 10.555907 -9.008231
            CHANNELS 3 Zrotation Xrotation Yrotation
            JOINT HandLeft
            {
              OFFSET 13.722443 8.733799 -3.723741
              CHANNELS 3 Zrotation Xrotation Yrotation
              JOINT HandTipLeft
              {
                OFFSET -0.306022 7.375960 0.131932
                CHANNELS 3 Zrotation Xrotation Yrotation
                End Site
                {
                  OFFSET 0 0 0
                }
              }
              JOINT ThumbLeft
              {
                OFFSET -1.777756 3.661385 -4.117646
                CHANNELS 3 Zrotation Xrotation Yrotation
                End Site
                {
                  OFFSET 0 0 0
                }
              }
            }
          }
        }
      }
      JOINT ShoulderRight
      {
        OFFSET 13.561202 -6.491731 -7.675776
        CHANNELS 3 Zrotation Xrotation Yrotation
        JOINT ElbowRight
        {
          OFFSET 7.010321 -25.686686 2.709946
          CHANNELS 3 Zrotation Xrotation Yrotation
          JOINT WristRight
          {
            OFFSET 0.534321 -20.199673 5.141725
            CHANNELS 3 Zrotation Xrotation Yrotation
            JOINT HandRight
            {
              OFFSET -0.713616 -6.392661 3.087894
              CHANNELS 3 Zrotation Xrotation Yrotation
              JOINT HandTipRight
              {
                OFFSET -0.405325 -6.319764 0.478962
                CHANNELS 3 Zrotation Xrotation Yrotation
                End Site
                {
                  OFFSET 0 0 0
                }
              }
              JOINT ThumbRight
              {
                OFFSET 2.052860 0.386833 -1.739836
                CHANNELS 3 Zrotation Xrotation Yrotation
                End Site
                {
                  OFFSET 0 0 0
                }
              }
            }
          }
        }
      }
    }
  }
  JOINT HipLeft
  {
    OFFSET -4.857167 1.234854 -2.170481
    CHANNELS 3 Zrotation Xrotation Yrotation
    JOINT KneeLeft
    {
      OFFSET -5.737639 -30.416623 -2.157167
      CHANNELS 3 Zrotation Xrotation Yrotation
      JOINT AnkleLeft
      {
        OFFSET -1.955735 -27.312720 -1.308059
        CHANNELS 3 Zrotation Xrotation Yrotation
        JOINT FootLeft
        {
          OFFSET -0.914344 -3.176742 -9.696519
          CHANNELS 3 Zrotation Xrotation Yrotation
          End Site
          {
            OFFSET 0 0 0
          }
        }
      }
    }
  }
  JOINT HipRight
  {
    OFFSET 5.585239 1.942856 -4.040113
    CHANNELS 3 Zrotation Xrotation Yrotation
    JOINT KneeRight
    {
      OFFSET 3.334487 -30.390853 -3.742357
      CHANNELS 3 Zrotation Xrotation Yrotation
      JOINT AnkleRight
      {
        OFFSET -1.340284 -28.672032 -3.151935
        CHANNELS 3 Zrotation Xrotation Yrotation
        JOINT FootRight
        {
          OFFSET -0.862236 -2.723673 -10.163395
          CHANNELS 3 Zrotation Xrotation Yrotation
          End Site
          {
            OFFSET 0 0 0
          }
        }
      }
    }
  }
}
MOTION
Frames: 13
Frame Time: 0.033333
-30.054578 65.454031 261.297314 -0.244327 -0.381593 7.796533 0.293838 0.344917 -7.798231 -0.694384 -0.425096 -0.054648 1.752327 -4.493409 -0.854912 0.000000 0.000000 0.000000 0.693998 0.425727 0.049493 -0.000000 0.000000 0.000000 -0.438122 2.937803 -4.813308 -1.020638 -5.399196 4.654687 0.000000 0.000000 0.000000 0.000000 0.000000 0.000000 0.329702 -2.402800 -0.766087 0.105188 4.364183 0.804858 -12.769634 -13.010186 -6.243444 17.436981 14.571342 2.295850 0.000000 0.000000 0.000000 0.000000 0.000000 0.000000 0.293838 0.344917 -7.798231 -0.000000 0.000000 0.000000 0.754125 -6.838864 -0.350722 0.000000 0.000000 0.000000 0.293838 0.344917 -7.798231 -0.000000 0.000000 0.000000 -0.669701 7.815709 0.053071 0.000000 0.000000 0.000000
-30.048678 65.436919 261.342254 -0.223777 -0.331317 7.633297 0.265807 0.298653 -7.634637 -0.000000 0.000000 0.000000 1.293158 -4.943248 -0.962251 0.000000 0.000000 0.000000 -0.060217 0.822504 -0.158915 -0.729421 -1.040072 0.013698 0.040414 3.188378 -4.836160 1.725985 -8.776650 4.839718 0.000000 0.000000 0.000000 0.000000 0.000000 0.000000 -0.334628 -2.644262 -0.763555 0.055640 4.238395 0.748984 -12.342418 -13.528219 -6.006542 16.681271 14.947202 2.079033 0.000000 0.000000 0.000000 0.000000 0.000000 0.000000 0.265807 0.298653 -7.634637 -0.000000 0.000000 0.000000 1.468155 -14.881103 0.029391 0.000000 0.000000 0.000000 0.265807 0.298653 -7.634637 -0.000000 0.000000 0.000000 -0.336221 4.035847 -0.010334 0.000000 0.000000 0.000000
-30.042941 65.432367 261.411920 -0.208258 -0.289440 7.376701 0.243698 0.260303 -7.377780 -0.000000 0.000000 0.000000 1.634695 -4.885170 -1.045531 0.000000 0.000000 0.000000 0.057486 0.892998 -0.136081 -1.022420 -1.157871 -0.045715 0.315662 3.719380 -5.539337 2.650914 -10.025262 5.647837 0.000000 0.000000 0.000000 0.000000 0.000000 0.000000 -0.264573 -2.541079 -0.726145 -0.286876 4.310585 0.666486 -11.171168 -12.966635 -5.483717 15.147499 14.139037 2.142159 0.000000 0.000000 0.000000 0.000000 0.000000 0.000000 0.243698 0.260303 -7.377780 -0.000000 0.000000 0.000000 1.980195 -19.662596 0.029869 0.000000 0.000000 0.000000 0.243698 0.260303 -7.377780 -0.000000 0.000000 0.000000 -0.000000 0.000000 0.000000 0.000000 0.000000 0.000000
-30.042693 65.427140 261.505874 -0.214014 -0.240314 7.079941 0.242003 0.212102 -7.080837 -0.000000 0.000000 0.000000 2.075049 -4.911561 -1.164473 0.000000 0.000000 0.000000 0.144296 0.978508 -0.125127 -1.264649 -1.284428 -0.091995 0.526886 4.209830 -6.207720 1.199094 -7.380366 6.328379 0.000000 0.000000 0.000000 0.000000 0.000000 0.000000 -0.023220 -2.629467 -0.719023 -0.965046 4.430443 0.587976 -9.892694 -11.379333 -4.961018 13.954175 11.786196 2.472965 0.000000 0.000000 0.000000 0.000000 0.000000 0.000000 0.242003 0.212102 -7.080837 -0.000000 0.000000 0.000000 1.819907 -11.768156 -2.890982 0.000000 0.000000 0.000000 0.473370 1.097215 -6.998902 -0.121810 -0.906704 -0.085543 0.293554 -2.399938 -0.357632 0.000000 0.000000 0.000000
-30.023990 65.461977 261.622497 -0.262908 -0.176300 6.859905 0.282084 0.143634 -6.860663 -0.000000 0.000000 0.000000 2.319352 -4.424836 -1.176113 0.000000 0.000000 0.000000 0.081588 1.149094 -0.173155 -1.254814 -1.477552 -0.040323 0.527786 4.719310 -7.011020 -2.532364 -6.251196 6.932057 0.000000 0.000000 0.000000 0.000000 0.000000 0.000000 0.309902 -2.821389 -0.727396 -1.800343 4.357896 0.510539 -7.139817 -9.175028 -3.618494 11.862971 10.569436 2.115161 0.000000 0.000000 0.000000 0.000000 0.000000 0.000000 0.282084 0.143634 -6.860663 -0.428801 -0.714623 0.069036 2.128400 -15.958430 -0.440892 0.000000 0.000000 0.000000 0.584865 1.194250 -6.767464 -0.176904 -1.078964 -0.098400 0.483435 -4.297288 -0.494691 0.000000 0.000000 0.000000
-30.038109 65.560495 261.753020 -0.397156 -0.184870 6.768813 0.416178 0.136767 -6.769950 -0.000000 0.000000 0.000000 3.210569 -4.288386 -1.400193 0.000000 0.000000 0.000000 0.177575 1.264019 -0.164831 -1.247788 -1.575344 -0.006621 0.806784 4.989616 -7.409343 -6.440220 -4.861196 7.148993 0.000000 0.000000 0.000000 0.000000 0.000000 0.000000 0.554677 -2.820951 -0.695131 -2.396535 3.606500 0.388591 -5.563909 -7.783935 -2.796280 12.407881 7.632056 1.940665 0.000000 0.000000 0.000000 0.000000 0.000000 0.000000 1.162350 0.521904 -6.912427 -1.192250 -1.107709 0.197803 1.727214 -14.312670 1.042052 0.000000 0.000000 0.000000 0.848960 1.353358 -6.672839 -0.288562 -1.258611 -0.105909 0.592786 -4.961007 -0.734808 0.000000 0.000000 0.000000
-30.074611 65.708286 261.891447 -0.456007 -0.332708 6.730580 0.491863 0.276961 -6.733093 -0.000000 0.000000 0.000000 3.871617 -4.231871 -1.571707 0.000000 0.000000 0.000000 0.711053 1.112380 0.018993 -1.615748 -1.376013 -0.158096 0.722398 4.727122 -7.067958 -10.211153 -4.332093 6.623383 0.000000 0.000000 0.000000 0.000000 0.000000 0.000000 0.833279 -2.740562 -0.637362 -2.888981 2.166766 0.233920 -4.770842 -5.848496 -2.305699 12.489781 7.337359 1.825157 0.000000 0.000000 0.000000 0.000000 0.000000 0.000000 1.391160 0.680970 -6.896340 -1.416041 -1.144782 0.216600 0.921508 -6.970465 1.329330 0.000000 0.000000 0.000000 1.042590 1.624489 -6.636381 -0.391434 -1.402086 -0.110641 0.594589 -4.337538 -0.959575 0.000000 0.000000 0.000000
-30.152596 65.977157 261.954436 -0.469138 -0.625943 6.842413 0.540396 0.565569 -6.847643 -0.669145 -0.641191 -0.053141 5.418977 -3.260917 -1.785924 0.000000 0.000000 0.000000 1.107061 1.423409 0.037510 -0.438993 -0.781313 -0.002752 -0.360381 3.570642 -5.797878 -14.310828 -6.324439 4.748809 0.000000 0.000000 0.000000 0.000000 0.000000 0.000000 2.701477 -0.655731 -0.093429 -5.651067 -0.140217 -0.758488 -4.901307 -5.576011 -2.656294 16.281534 8.054915 2.233583 0.000000 0.000000 0.000000 0.000000 0.000000 0.000000 1.608417 0.676670 -6.978519 -1.046579 -0.239910 0.117106 -0.574423 2.044177 1.112927 0.000000 0.000000 0.000000 1.223843 1.852583 -6.777704 -0.526915 -1.358562 -0.090608 0.446286 -2.514456 -0.937295 0.000000 0.000000 0.000000
-30.329089 66.389123 261.741980 -0.249506 -0.983817 7.493665 -0.029102 -0.021633 -7.504577 -0.075679 -0.127984 -0.014039 5.949560 -3.049928 -2.122886 0.000000 0.000000 0.000000 0.350800 1.137172 0.019765 -0.000000 0.000000 0.000000 -1.068949 2.330975 -4.070848 -20.892593 -10.003653 1.853162 0.000000 0.000000 0.000000 0.000000 0.000000 0.000000 2.084471 -0.137433 -0.159575 -4.749102 -1.183577 -0.643976 -6.150472 -3.889439 -2.984666 18.643581 4.160155 3.105494 0.000000 0.000000 0.000000 0.000000 0.000000 0.000000 1.626401 0.347370 -7.525916 -1.317791 0.426665 0.017842 -0.729046 2.311281 1.480732 0.000000 0.000000 0.000000 1.252973 1.636705 -7.526491 -0.778782 -0.802572 0.002391 -0.000000 0.000000 0.000000 0.000000 0.000000 0.000000
-30.624748 66.858519 261.290120 0.156243 -1.312374 8.302276 0.016322 -0.084177 -8.293139 -0.056953 -0.161724 0.008338 6.154486 -3.054635 -2.431101 0.000000 0.000000 0.000000 -1.226081 0.850081 -0.202802 1.096053 0.709037 0.205794 -1.536409 0.680922 -1.684497 -29.568076 -13.224388 -2.130129 0.000000 0.000000 0.000000 0.000000 0.000000 0.000000 1.077290 -0.083214 -0.347249 -3.147804 -2.859528 -0.296712 -6.199984 -1.548728 -2.445051 18.413273 2.147662 3.053629 0.000000 0.000000 0.000000 0.000000 0.000000 0.000000 1.527637 -0.208505 -8.190530 -1.695539 1.301359 -0.105597 -0.593476 -1.969075 2.494893 0.000000 0.000000 0.000000 1.073108 1.087723 -8.462101 -0.000729 -0.811257 0.072191 -1.325888 4.572456 -0.076855 0.000000 0.000000 0.000000
-31.016038 67.326886 260.489780 0.794208 -1.545805 8.080186 0.034596 -0.135401 -8.038166 -0.052237 -0.185645 0.038379 6.002404 -3.368870 -2.704311 0.000000 0.000000 0.000000 -2.704750 -0.111610 -0.266215 1.902487 1.982025 0.207972 -2.253113 -0.911566 0.438546 -34.726604 -16.996374 -6.074636 0.000000 0.000000 0.000000 0.000000 0.000000 0.000000 0.219568 -0.426916 -0.582127 -1.953514 -4.345041 0.100487 -4.618117 0.799001 -1.279691 14.151627 -0.378731 2.368947 0.000000 0.000000 0.000000 0.000000 0.000000 0.000000 1.067713 -1.238277 -7.714268 -2.010253 2.633793 -0.306598 -0.616931 -0.143922 1.927979 0.000000 0.000000 0.000000 0.671566 0.347671 -8.377968 0.144414 -0.751266 0.220196 -2.183974 9.270672 0.111416 0.000000 0.000000 0.000000
-31.513510 67.714165 259.430232 1.559698 -1.658980 6.707477 0.027482 -0.159790 -6.625537 -0.062792 -0.195078 0.071192 5.612277 -4.177849 -2.939287 0.000000 0.000000 0.000000 -4.230826 -1.201894 -0.342382 2.675426 3.229612 0.187605 -3.018811 -1.572078 1.089831 -38.409987 -20.461122 -8.767248 0.000000 0.000000 0.000000 0.000000 0.000000 0.000000 -0.400543 -1.385183 -0.906312 -1.285641 -4.744149 0.571504 -2.113505 2.305891 0.000829 8.058310 -1.153660 0.992408 0.000000 0.000000 0.000000 0.000000 0.000000 0.000000 0.501332 -2.699485 -6.004785 -2.326179 4.307679 -0.556845 -0.442447 2.771631 0.524033 0.000000 0.000000 0.000000 0.309449 -0.570150 -7.160143 -0.306161 -0.147864 0.416764 -2.006238 6.674150 0.128214 0.000000 0.000000 0.000000
-32.048119 67.982430 258.267496 2.351255 -1.564042 4.684099 0.008643 -0.125531 -4.565015 -0.078981 -0.167038 0.102370 5.064603 -5.383996 -3.098063 0.000000 0.000000 0.000000 -5.233699 -3.165711 -0.208913 2.939619 5.035195 -0.099306 -3.973045 0.093942 -1.744373 -47.086655 -25.254055 -10.755446 0.000000 0.000000 0.000000 0.000000 0.000000 0.000000 -1.868813 -2.400838 -1.256659 0.300530 -4.721260 1.060711 2.532399 2.830778 1.970016 -1.127926 -1.270749 -1.454618 0.000000 0.000000 0.000000 0.000000 0.000000 0.000000 -0.245139 -4.351848 -3.621766 -1.366176 5.169915 -0.917796 -0.967731 7.185177 -1.677908 0.000000 0.000000 0.000000 0.188317 -1.895190 -5.324887 -1.185343 0.863866 0.686177 -1.723399 6.945466 -0.475866 0.000000 0.000000 0.000000
